<?xml version='1.0' encoding='UTF-8'?>
<svg x="0px" y="0px" viewBox="0 0 32 32" version="1.1" xmlns="http://www.w3.org/2000/svg" xmlns:xlink="http://www.w3.org/1999/xlink" xml:space="preserve" id="Layer_1" style="enable-background:new 0 0 32 32">
  <style type="text/css">
	.Black{fill:#727272;}
	.Red{fill:#D11C1C;}
	.Yellow{fill:#FFB115;}
	.Green{fill:#039C23;}
</style>
  <g id="Stop">
    <path d="M27,6c-1.1,0-2,0.9-2,2v6h-1V4c0-1.1-0.9-2-2-2s-2,0.9-2,2v10h-1V2c0-1.1-0.9-2-2-2s-2,0.9-2,2v12h-1V4   c0-1.1-0.9-2-2-2s-2,0.9-2,2v10v4v0.4l-4.9-3.1c-0.8-0.5-1.8-0.4-2.5,0.3c-0.8,0.8-0.8,2.1,0,2.9l9.3,9.5c1.2,1.3,3,2.1,4.9,2.1H23   c3.3,0,6-2.7,6-6v-4v-6V8C29,6.9,28.1,6,27,6z" class="Black" />
  </g>
</svg>